<svg width="1110" height="766" viewBox="0 0 1110 766" fill="none" xmlns="http://www.w3.org/2000/svg">
<g clip-path="url(#clip0_46_516)">
<path d="M902.776 1094.6L850.491 1076.02C798.206 1057.43 693.636 1020.26 643.146 924.388C592.287 828.914 596.43 673.733 560.312 562.257C524.562 450.381 449.474 381.209 340.02 349.341C230.199 317.873 86.934 322.71 11.5688 253.838C-63.2436 184.366 -70.1563 41.1866 -72.9678 -31.1032L-76.1478 -102.993L-312 153.034L-274.456 187.62C-236.911 222.206 -161.822 291.378 -86.7336 360.549C-11.6448 429.721 63.444 498.893 138.533 568.064C213.622 637.236 288.71 706.408 363.799 775.58C438.888 844.751 513.977 913.923 589.065 983.095C664.154 1052.27 739.243 1121.44 776.787 1156.02L814.332 1190.61L902.776 1094.6Z" fill="#11B286"/>
</g>
<g opacity="0.2">
<path d="M224.891 425.565C193.095 391.917 132.266 367.501 105.876 327.799C79.0327 288.218 86.7927 233.065 124.674 209.828C162.842 186.756 231.417 195.767 279.205 197.745C326.828 200.011 353.663 195.244 385.86 185.162C418.509 174.96 456.807 159.609 501.154 159.601C545.667 159.306 596.231 174.355 623.759 207.451C651.288 240.547 656.069 291.855 641.343 334.577C626.33 377.133 591.644 411.389 563.046 443.044C534.736 474.865 512.348 504.372 483.119 511.961C453.603 519.385 416.793 505.014 379.007 506.899C341.055 509.07 302.128 527.498 281.078 514.962C259.862 502.713 256.81 459.666 224.891 425.565Z" fill="#11B286"/>
</g>
<path d="M642 1028L-2.5 420.5V1016.51L642 1028Z" fill="#11B286"/>
<defs>
<clipPath id="clip0_46_516">
<rect width="1531.4" height="435.13" fill="white" transform="matrix(-0.735491 -0.677534 -0.677534 0.735491 1109.15 870.576)"/>
</clipPath>
</defs>
</svg>
