<?xml version="1.0" encoding="utf-8"?>
<!-- Generator: Adobe Illustrator 28.1.0, SVG Export Plug-In . SVG Version: 6.00 Build 0)  -->
<svg version="1.1" id="Calque_1" xmlns="http://www.w3.org/2000/svg" xmlns:xlink="http://www.w3.org/1999/xlink" x="0px" y="0px"
	 viewBox="0 0 701.2 687.5" style="enable-background:new 0 0 701.2 687.5;" xml:space="preserve">
<style type="text/css">
	.st0{clip-path:url(#SVGID_00000078737326007142206320000005650640203919786391_);}
	.st1{fill:#11B286;}
	.st2{opacity:0.2;}
	.st3{fill:#F2F2F2;}
	.st4{fill:#FFFFFF;}
	.st5{fill:#2F2E41;}
	.st6{fill:#9E616A;}
	.st7{fill:#FFB8B8;}
	.st8{fill:#CCCCCC;}
	.st9{fill:#FFB6B6;}
	.st10{fill:#CACACA;}
	.st11{fill:#3F3D56;}
	.st12{fill:#A0616A;}
	.st13{opacity:0.2;enable-background:new    ;}
</style>
<g>
	<defs>
		
			<rect id="SVGID_1_" x="181" y="-332.3" transform="matrix(0.6775 -0.7355 0.7355 0.6775 -190.1978 432.8904)" width="435.1" height="1531.4"/>
	</defs>
	<clipPath id="SVGID_00000096745986842030518180000014705417755252546213_">
		<use xlink:href="#SVGID_1_"  style="overflow:visible;"/>
	</clipPath>
	<g style="clip-path:url(#SVGID_00000096745986842030518180000014705417755252546213_);">
		<path class="st1" d="M902.8,1016.1l-52.3-18.6c-52.3-18.6-156.9-55.8-207.3-151.6c-50.9-95.5-46.7-250.7-82.8-362.1
			c-35.8-111.9-110.8-181-220.3-212.9c-109.8-31.5-253.1-26.6-328.5-95.5C-63.2,105.9-70.2-37.3-73-109.6l-3.2-71.9L-312,74.6
			l37.5,34.6c37.5,34.6,112.6,103.8,187.7,172.9c75.1,69.2,150.2,138.3,225.3,207.5c75.1,69.2,150.2,138.3,225.3,207.5
			c75.1,69.2,150.2,138.3,225.3,207.5c75.1,69.2,150.2,138.3,187.7,172.9l37.5,34.6L902.8,1016.1z"/>
	</g>
</g>
<g class="st2">
	<path class="st1" d="M224.9,347.1c-31.8-33.6-92.6-58.1-119-97.8c-26.8-39.6-19.1-94.7,18.8-118c38.2-23.1,106.7-14.1,154.5-12.1
		c47.6,2.3,74.5-2.5,106.7-12.6c32.6-10.2,70.9-25.6,115.3-25.6c44.5-0.3,95.1,14.8,122.6,47.8c27.5,33.1,32.3,84.4,17.6,127.1
		c-15,42.6-49.7,76.8-78.3,108.5c-28.3,31.8-50.7,61.3-79.9,68.9c-29.5,7.4-66.3-6.9-104.1-5.1c-38,2.2-76.9,20.6-97.9,8.1
		C259.9,424.3,256.8,381.2,224.9,347.1z"/>
</g>
<path class="st1" d="M642,746.9L0,342v397.2L642,746.9z"/>
<g>
	<path class="st3" d="M497,352.6c0,21.1-3.6,42.1-10.6,62c0,0.1-0.1,0.2-0.1,0.3v0c-5.3,14.8-12.4,28.9-21.3,41.9
		c-1.5,2.3-3.1,4.5-4.8,6.7c-1.8,2.4-3.7,4.8-5.6,7.1c-1.8,2.1-3.6,4.3-5.5,6.3c-2.2,2.5-4.5,4.9-6.9,7.2
		c-5.5,5.5-11.4,10.7-17.6,15.4c-1.1,0.8-2.2,1.7-3.3,2.5c-2.6,1.9-5.2,3.7-7.9,5.5c-5.9,3.9-12,7.5-18.3,10.7
		c-1.1,0.6-2.2,1.1-3.3,1.6c-4.3,2.1-8.6,4-13,5.7c-1.3,0.5-2.5,1-3.8,1.4c-0.2,0.1-0.4,0.2-0.7,0.2c-15.2,5.5-31.1,9-47.2,10.3
		c-1.1,0.1-2.2,0.2-3.4,0.3c-1.2,0.1-2.4,0.2-3.6,0.2c-0.9,0-1.9,0.1-2.8,0.1c-0.2,0-0.4,0-0.6,0c-1.3,0-2.6,0.1-3.8,0.1
		c-0.5,0-1.1,0-1.6,0c-0.3,0-0.5,0-0.8,0c-3.7,0-7.4-0.1-11-0.4c-0.1,0-0.1,0-0.2,0c-1.3-0.1-2.6-0.2-3.9-0.3
		c-4.6-0.4-9.2-0.9-13.7-1.7c-1-0.2-2.1-0.3-3.1-0.5c-4.5-0.8-8.9-1.8-13.3-2.9c-1.3-0.3-2.6-0.7-3.9-1c-17.9-5-34.9-12.6-50.5-22.7
		c-2.7-1.7-5.3-3.5-7.9-5.4c-0.3-0.2-0.6-0.4-0.9-0.7c-6.3-4.6-12.2-9.5-17.9-14.8c-2.7-2.5-5.3-5.1-7.8-7.8
		c-32.6-34.4-50.8-80-50.7-127.4C125.9,250.1,209,167,311.5,167S497,250.1,497,352.6z"/>
	<path class="st4" d="M334.1,214.4c3.7-6.1,8.1-12.7,15-14.7c8-2.3,16.2,2.3,23.1,6.8c20.8,13.6,40.8,28.4,60,44.2l0,0.2
		c-14.9-1-29.9-2.1-44.8-3.1c-10.8-0.7-21.9-1.6-31.5-6.7c-3.6-1.9-7.1-4.5-11.2-4.7c-5.1-0.2-9.5,3.3-13,7
		c-20.6,22-26.6,55.6-49.8,74.9C296.6,282.4,314,247.6,334.1,214.4z"/>
	<path class="st4" d="M207.2,400.8c2.3-2.9,3.2-3.6,5.5-6.5c18.3-23.7,35.6-48.2,51.7-73.5c11-17.2,21.4-34.7,31.2-52.6
		c4.7-8.5,9.3-17,13.7-25.7c3.4-6.7,6.8-13.4,10.1-20.2c0.9-1.9,1.9-3.9,2.8-5.8c2.1-4.6,4.3-9.2,6.5-13.7c2.6-5.1,5.7-10.5,10.4-14
		c2.2-1.6,4.7-2.6,7.4-2.9c3.9-0.2,7.4,1.3,10.7,3.1c24.4,12.7,47.3,28.7,68,46.9c20.7,18.2,39.3,38.8,55.3,61.3
		c0.5,0.7,1.6,0,1.2-0.7c-1.9-2.7-3.9-5.5-5.9-8.1c-16.7-22.3-36.1-42.5-57.5-60.3c-10.6-8.8-21.8-17-33.4-24.5
		c-5.9-3.8-11.9-7.5-18-10.9c-3.1-1.7-6.2-3.5-9.3-5.1c-3.1-1.6-6.4-3-9.9-3.1c-12-0.2-18.2,13.4-22.5,22.6
		c-1.3,2.9-2.7,5.7-4.1,8.6c-5.2,10.9-10.6,21.6-16.2,32.3c-3.5,6.6-7,13.1-10.6,19.6c-11.2,20.3-23.1,40.1-35.7,59.5
		c-16.7,25.7-33.3,48.5-52.3,72.6C205.7,400.5,206.7,401.5,207.2,400.8z"/>
	<path class="st4" d="M273.6,292.7l-17.9-6.5l-8.9-3.2c-2.9-1.1-5.8-2.3-8.8-3c-2.6-0.7-5.3-0.8-7.9,0.1c-2.3,0.9-4.4,2.2-6.2,3.8
		c-1.8,1.7-3.5,3.5-5.1,5.4c-1.9,2.3-3.8,4.7-5.7,7c-7.9,9.7-15.7,19.4-23.5,29.1c-7.8,9.7-15.5,19.5-23.2,29.3
		c-7.7,9.8-15.4,19.7-23,29.7c-0.9,1.2-1.9,2.4-2.8,3.7c-0.5,0.7-1.7,0-1.2-0.7c7.7-10,15.4-20,23.1-30c7.8-10,15.6-19.9,23.5-29.8
		c7.9-9.9,15.8-19.7,23.8-29.5c2-2.4,4-4.9,6-7.3c1.7-2.1,3.4-4.1,5.2-6c3.4-3.5,7.6-6.6,12.7-6.7c3,0,5.9,0.9,8.6,1.9
		c3,1.1,6,2.2,9,3.3l18,6.6l4.5,1.6C274.8,291.7,274.4,293,273.6,292.7L273.6,292.7z"/>
	<path class="st4" d="M224.7,292.8c1.8-2.1,3.7-4.4,6.3-5.3l2.5,0.1c-18.7,33.1-44,62-74.3,84.9C181,345.9,202.8,319.4,224.7,292.8z
		"/>
	<path class="st5" d="M344.2,258.6c0,11.4-9.2,20.6-20.6,20.6c-11.4,0-20.6-9.2-20.6-20.6c0-5.3,2.1-10.5,5.8-14.3
		c0,0,0.1-0.1,0.1-0.1c0.2-0.2,0.3-0.3,0.5-0.5c0,0,0,0,0,0c0,0,0,0,0,0c0.2-0.2,0.4-0.4,0.7-0.6c8.6-7.5,21.6-6.7,29.1,1.9
		C342.4,248.7,344.2,253.6,344.2,258.6L344.2,258.6z"/>
	<circle class="st6" cx="318.5" cy="263.3" r="17.3"/>
	<path class="st5" d="M330.8,246.7c-5.5-5.1-13.4-6.7-20.4-3.9c-0.1,0-0.2,0.1-0.3,0.1c0,0,0,0,0,0c-0.3,0.1-0.7,0.3-1,0.4l-0.2,0.1
		v0c0,0-0.1,0.1-0.1,0.1c-0.1,0.1-0.2,0.1-0.3,0.2c-3.3,0-6,1.2-8,3.4c-2.7,2.9-3.9,7.6-3.6,13.2l0,0.2l0.1,0.1
		c1.4,0.9,2.8,1.7,4.1,2.3c0.8,0.4,1.5,0.8,2.3,1.1c0.1,0,0.2,0.1,0.3,0.1c7.5,3.5,14.3,4.1,20.9,1.9l0.1,0l2.8-4.7
		c0.6,3.3,3.2,5.9,6.4,6.4l1.2,0.2l1.7,0.3l0.1-0.3C338.6,260.3,336.2,251.8,330.8,246.7z"/>
	<path class="st5" d="M373.3,283c-5.9-3,1.7-14.1,0.2-20.5c-1.5-6.5-12.5-8.5-13.2-15.1S358,234,353.6,229
		c-2.8-3.2-6.9-5.6-11.1-5.2c-5.5,0.5-9.5,5.4-9,10.9c0,0.5,0.1,1,0.2,1.4c-1.2-1.7-4.3-1.3-5.1,0.6c-0.7,1.7,0.8,3.8,2.6,4
		c2.3,2.9,5,5.9,8.6,6.5c1.2,0.2,2.5,0,3.4-0.8s0.9-2.5-0.1-3.1c4.6,1.8,7.3,6.8,7.9,11.6c0.7,4.9-0.3,9.8-0.9,14.7s-0.9,10,1,14.6
		c2.3,5.4,7.5,9.2,13.2,10.4s11.7,0,16.9-2.7c5.1-2.7,9.4-6.9,13-11.5C388.3,284.8,379.9,286.4,373.3,283z"/>
	<polygon class="st7" points="306.4,355.7 294.5,437.3 359.7,432.4 340.2,352.1 	"/>
	<path class="st5" d="M374.7,526.4c-0.1,0.3-0.1,0.6-0.2,0.8c-7.5,2.7-15.2,4.9-23.1,6.7c-1.6-5.4-4.8-15.7-7.6-24.1
		c-2.3-6.9-4.3-12.5-5-13.2c-1.9-1.9,0-4.5,0-4.5l-8.3-25.7l-3.8-11.7l-1.3,24.5l-1.9,35.5l-0.1,1c0,0-2.6,7.7-1.3,9
		c1.3,1.3-1.3,6.4-1.3,6.4l-0.7,6.7c-0.9,0-1.9,0.1-2.8,0.1l-0.3,0.1l-0.3-0.1c-1.3,0-2.6,0.1-3.8,0.1c-0.5,0-1.1,0-1.6,0
		c-0.3,0-0.5,0-0.8,0c-3.7,0-7.4-0.1-11-0.4l-2.3-18.4l-2.3-19c0,0,2.6-5.1,0-7.7c-1.5-1.5-0.8-3.8,0.1-5.3
		c-0.5-2.4-1.3-6.1-2.3-11.5c0-0.2-0.1-0.4-0.1-0.6c-0.3-1.7-0.6-3.4-0.8-5.1c-0.4-2.9-0.8-5.7-1-8.4c-0.9-8.7-1-17.4-0.4-26.1
		c0.2-3.1,0.6-5.4,0.8-6.7c0-0.1,0.2-0.8,0.5-1.9c0.5-1.8,1.3-4.5,2.2-7.6c0.5-1.6,1-3.4,1.5-5.1c0.9-3,1.7-6,2.4-8.4v0
		c0.6-2.1,1.1-3.8,1.4-4.7c0.1-0.4,0.2-0.7,0.2-0.7s0.1,0,0.4-0.1c0.8-0.2,2.8-0.6,5.6-1.2c2.9-0.6,6.6-1.4,10.7-2.2
		c3.5-0.7,7.2-1.4,11-2c1.3-0.2,2.7-0.4,4-0.6c8.2-1.2,15.7-1.9,19.2-1.1c0.2,0.1,0.5,0.1,0.7,0.2c0.2,0.1,0.5,0.2,0.7,0.3
		c0.1,0.1,1.2,4.2,2.5,9.6c0,0.1,0,0.1,0,0.2c0.4,1.6,0.8,3.4,1.3,5.2c0.5,1.8,0.9,3.7,1.4,5.5c1.3,5.4,2.6,10.3,3.2,12.8
		c0.2,0.9,0.4,1.5,0.4,1.6c1.5,2.5,2.7,8.6,3.7,16.2c0.9,6.8,1.6,14.9,2.1,22.7c0.3,3.9,0.5,7.7,0.7,11.3c0.7,12,0.9,21.4,0.9,21.4
		s1,7.8,2.9,11.5c0.2,0.5,0.5,0.9,0.9,1.3c1.3,1.3,1.5,2.4,1.3,3.2c-0.1,0.4-0.2,0.7-0.5,1c-0.1,0.1-0.1,0.1-0.2,0.2
		c-0.3,1.6,0.1,3.3,1.3,4.5C375,523.5,374.9,525.3,374.7,526.4z"/>
	<path class="st1" d="M353.3,329.5c-0.1-0.6-0.2-1.1-0.2-1.7c0-0.4-0.1-0.7-0.2-1.1c-0.6-3.6,1.8-6.7-1.2-9.2
		c-0.7-0.6-1.3-1.3-1.7-2.1l-0.7-1.4l-1.3-2.6l-2.8-5.6l-0.5-1c-0.1-0.3-0.3-0.5-0.5-0.8c-0.5-0.8-1.2-1.4-2-1.9l-6.9-4.1
		c-1.1-0.6-1.9-1.6-2.5-2.7l-0.2-0.4c-0.8-1.6-2.1-5.3-3.7-6.9l0,0c-0.4-0.4-0.8-0.7-1.4-0.8l-6.9-0.7c-2.2-0.2-4.4,0.7-5.8,2.6
		l-0.2,0.9l-1.1,5l-0.1,0c-0.3,0.1-0.7,0.1-1,0.2c-7.1,2-10.1,26.9-10.1,26.9s-5,8.3-3,13.4l3.5,8.2c0,0.1,0,0.1,0.1,0.2
		c0.3,0.9,0.4,1.9,0.3,2.8l0,0.3l0,0.7l0,1.8l0.1,6l0.1,7.6l0.1,6.4l0,1.7l-5.8,25.1c-0.2,1.7,0.3,3.3,1.3,4.7l0,0
		c0.1,0.2,0.3,0.3,0.4,0.5l0,0c0.1,0.1,0.3,0.3,0.4,0.4c1.4,1.2,3.3,1.8,5.1,1.5l0.8-0.1h0l11.2-1.7h0l1.3-0.2h0l12.5-1.9h0l2.1-0.3
		c0.2,0,0.3,0,0.5-0.1l11.5-0.8c0.3,0,0.5-0.1,0.8-0.1h0c2-0.4,3.8-1.8,4.6-3.7c0.2-0.4,0.3-0.8,0.4-1.2c0.1-0.4,0.2-0.9,0.2-1.3
		l0.1-10.8l0.4-34.9c0-1.2,0.3-2.3,1-3.3C354.3,340.8,354.1,335.4,353.3,329.5z"/>
	<path class="st6" d="M334.1,422.8c-0.6-3.4,1.6-6.6,5-7.2c0.4-0.1,0.7-0.1,1.1-0.1l7.2-20.8l7,9.1l-7.9,18.4
		c-0.2,3.4-3.2,6-6.6,5.8C336.9,427.8,334.6,425.7,334.1,422.8L334.1,422.8z"/>
	<path class="st1" d="M361.4,379l-1.6,4.1l-2.2,25.1c-0.7,0.2-1.4,0.5-2,0.8c-2.7,1.7-4,5.1-2.9,8.1l0.7,2l-4.9-1.5l-8.1-2.5
		l-9.5-2.9l1.6-5.2c0.8-2.4,0.3-5.1-1.3-7.1c-0.2-0.2-0.4-0.5-0.6-0.7l0.6-4.5l0.4-2.7l-4.4,3.3l-8.5,6.5h0l-1.1,0.9
		c0,0-0.1-0.2-0.2-0.7c-0.2-0.8-0.6-2.5-1.1-4.7c-2.6-11.2-4.5-22.6-5.7-34c-0.3-2.6-0.5-5.2-0.7-7.9c-0.2-2.8-0.3-5.5-0.4-8.4
		c-0.6-22.9,2.9-46.9,17.6-59.2c0.7,0,1.4,0.1,2.1,0.3c6,1.8,12.5,10.8,17,17.2c1.1,1.5,2,2.9,2.8,4l2,2.7c2.7,3.6,4.5,7.8,5.4,12.2
		c0.2,0.9,0.3,1.9,0.4,2.8l2.1,19.6v5.1L361.4,379z"/>
	<path class="st8" d="M136.6,414.2c3.8,4.5,8,8.8,12.4,12.8l325.1,0.4c4.4-4,8.6-8.2,12.4-12.8L136.6,414.2z"/>
	<path class="st9" d="M313.1,538.2c-0.5,0-1.1,0-1.6,0c-0.3,0-0.5,0-0.8,0c-3.7,0-7.4-0.1-11-0.4l0.1,0.7l-0.3-0.7l-7-16.3l5-2.1
		l9.1-3.9l2.8,9.5l2.6,9.1l0.8,2.7L313.1,538.2z"/>
	<path class="st9" d="M280.7,519.3l-2,16c-4.5-0.8-8.9-1.8-13.3-2.9v-13.1L280.7,519.3z"/>
	<path class="st10" d="M211.1,489.8v18.9c-2.7-1.7-5.3-3.5-7.9-5.4v-13.6H211.1z"/>
	<path class="st11" d="M241.6,486.6v9.5c0,3.6-2.9,6.6-6.6,6.6h-32.8c-6.3-4.6-12.2-9.5-17.9-14.8c-2.7-2.5-5.3-5.1-7.8-7.8h58.5
		C238.7,480.1,241.6,483,241.6,486.6L241.6,486.6z"/>
	<path class="st5" d="M318.6,537.8l-1.1,0.3l-0.3,0.1l-0.3-0.1c-1.3,0-2.6,0.1-3.8,0.1c-0.5,0-1.1,0-1.6,0c-0.3,0-0.5,0-0.8,0
		c-3.7,0-7.4-0.1-11-0.4l0.1,0.7l-0.3-0.7c-1.3-0.1-2.6-0.2-3.9-0.3l-10.3-17.2L264.2,485l-2.4-4.1c0,0-8.3,2.5-20.2,4.8
		c-8.9,1.8-19.8,3.5-30.5,4.1c-2.6,0.1-5.3,0.2-7.9,0.2c-6.7,0-13.2-0.7-18.8-2.2c-2.7-2.5-5.3-5.1-7.8-7.8
		c-4.3-4.5-8.4-9.3-12.2-14.3c-0.1-1.8,0-3.6,0.3-5.4c0-0.3,0.1-0.6,0.1-0.9L166,439l8.9-1.2l13.6-1.8l14.7-1.9l1.6,12.7
		c0,0,11.5-0.6,26-0.4c23.4,0.3,54.6,2.6,58.8,12.6c0.4,0.9,0.8,1.9,1.2,2.8c8.2,19.7,15.8,40.7,20.9,55.6c1,2.8,1.9,5.5,2.7,7.8
		C317.1,533,318.6,537.8,318.6,537.8z"/>
	<path class="st5" d="M293.6,470.3c-0.2,1.9-0.4,3.7-0.7,5.6c-2.1,16.4-5,32.1-7.6,44.5c-1.3,6-2.5,11.3-3.4,15.5
		c-1-0.2-2.1-0.3-3.1-0.5c-4.5-0.8-8.9-1.8-13.3-2.9c-1.3-0.3-2.6-0.7-3.9-1l2.6-46.4l0.9-15.4l26.9,0.6L293.6,470.3z"/>
	<path class="st9" d="M336.9,398.5c4.2-2.4,9.6-0.9,12,3.4c0.3,0.5,0.5,0.9,0.6,1.4l31.3,0l-9,13.5l-28.3-2.1
		c-4.7,1.3-9.6-1.5-10.9-6.2C331.5,404.7,333.3,400.5,336.9,398.5L336.9,398.5z"/>
	<path class="st1" d="M353.9,416.8l56.3,5.6l0.1-0.2c0.3-0.4,28.5-36.4,33.2-45c2.9-5.2,4-11.2,3-17l0-0.1l-0.1-0.1
		c-4.7-4-11.6-4.1-16.5-0.4c-11.4,8.9-20.7,20.2-26.9,33.3l-3.6,7.4l-41.3,1.8L353.9,416.8z"/>
	<path class="st9" d="M332.2,518.5l-8.3,19.3c-1.2,0.1-2.4,0.2-3.6,0.2c-0.9,0-1.9,0.1-2.8,0.1l-0.3,0.1l-0.3-0.1
		c-1.3,0-2.6,0.1-3.8,0.1c-0.5,0-1.1,0-1.6,0c-0.3,0-0.5,0-0.8,0l0.6-1.9l0.6-2.2l2.6-8.9l3.7-12.8l5.5,2.4L332.2,518.5z"/>
	<path class="st9" d="M392,519.9c-4.3,2.1-8.6,4-13,5.7l-4.3-7.3l14-6.1L392,519.9z"/>
	<path class="st10" d="M421.5,486.7v15.4c-2.6,1.9-5.2,3.7-7.9,5.5v-20.9H421.5z"/>
	<path class="st11" d="M449.2,477c-2.2,2.5-4.5,4.9-6.9,7.2c-5.5,5.5-11.4,10.7-17.6,15.4h-35.2c-1.9,0-3.7-0.8-4.9-2.2l0,0
		c-0.7-0.8-1.2-1.8-1.5-2.9l0,0c-0.1-0.5-0.1-0.9-0.1-1.4v-9.5c0-3.6,2.9-6.6,6.6-6.6H449.2z"/>
	<path class="st5" d="M463.7,440l-3.8,16.3c0.4,2.4,0.5,4.8,0.4,7.2c-1.8,2.4-3.7,4.8-5.6,7.1c-1.8,2.1-3.6,4.3-5.5,6.3
		c-2.2,2.5-4.5,4.9-6.9,7.2c-6.1,1.9-13.3,2.7-20.9,2.8c-2.6,0-5.2,0-7.9-0.2c-10.7-0.6-21.6-2.3-30.5-4.1c-2.4-0.5-4.6-0.9-6.6-1.4
		c-3.9-0.9-7.1-1.7-9.4-2.3c-2.6-0.7-4.1-1.1-4.1-1.1l-10,16.8l-9.1,15.2l-16.6,27.7c-1.1,0.1-2.2,0.2-3.4,0.3
		c-1.2,0.1-2.4,0.2-3.6,0.2c-0.9,0-1.9,0.1-2.8,0.1l-0.3,0.1l-0.3-0.1l-4.2-1.4l-1.4-0.5l-5.2-1.6c0,0,1.2-3.6,3.2-9.7
		c0.7-2.2,1.6-4.8,2.6-7.6c3.5-10.2,8.3-23.8,13.8-38.1c1.6-4.2,3.3-8.6,5-12.8c1.4-3.5,2.9-7,4.3-10.5c2.5-6,14.8-9.2,29.3-10.9
		c0.7-0.1,1.5-0.2,2.2-0.2c7.4-0.8,15.2-1.2,22.5-1.4c3.7-0.1,7.2-0.1,10.5-0.1c1.1,0,2.1,0,3.1,0h0c2.7,0,5.2,0.1,7.4,0.1
		c0.4,0,0.8,0,1.2,0h0c0.3,0,0.5,0,0.8,0c4.8,0.1,7.7,0.3,7.7,0.3l1.1-9l0.2-1.8l0.2-1.7v0l0-0.2l0.2,0l3.2-0.1l26.7-0.5l14.6-0.3
		L463.7,440z"/>
	<path class="st5" d="M395.3,518.2c-1.1,0.6-2.2,1.1-3.3,1.6c-4.3,2.1-8.6,4-13,5.7c-1.3,0.5-2.5,1-3.8,1.4
		c-0.1-0.2-0.3-0.4-0.4-0.6c-6.1-8.4-13.9-19.5-21.8-31.8c-3.3-5.2-6.6-10.5-9.8-16l23.3-10.9l2.6-1.2l7.5,14.8l6.7,13.2l1.5,2.9
		L395.3,518.2z"/>
	<circle class="st9" cx="429" cy="313.1" r="21.4"/>
	<path class="st5" d="M428.3,333.6c5,2.4,11.2,1.6,16-1.2c4.8-2.8,8.3-7.4,10.8-12.4c1.8-3.7,3.1-7.8,2.1-11.8
		c-1-3.9-5.2-7.2-9.1-6.1c2.7-2.2,2.4-6.6,0.2-9.3c-2.2-2.7-5.6-3.9-8.9-4.9c-4.8-1.4-9.8-2.4-14.7-1.7s-9.8,3.4-12.1,7.8
		c-3.3,0.9-6.8-0.6-8.4-3.6c-1.1,2.9-0.1,6.1,2.3,7.9l-6.7-3.6c-1.7,2.4-0.2,6,2.4,7.3c2.6,1.3,5.7,1,8.5,0.3s-0.5,5.2,2.4,5.3
		c2.9,0.1,6.1,1.6,6.9,4.4c0.4,1.5,0.2,3,0.3,4.5c0.1,1.5,0.9,3.2,2.3,3.6c0.9,0.2,1.9-0.1,2.9,0.2c1.1,0.3,1.8,1.6,1.9,2.8
		c0.1,1.2-0.3,2.4-0.6,3.5c-1.5,4.5,3.2,2,1.8,6.5L428.3,333.6z"/>
	<path class="st1" d="M470.4,397c-0.2-17.7-1-29.8-2.4-35.9c-3.8-16.4-21.2-19.4-23.9-19.7c-1.2-3.1-4.6-4.7-7.7-3.5
		c-0.1,0-0.3,0.1-0.4,0.2l-12.4,5.7c-5.1,2.3-8.9,6.7-10.7,11.9l-1.8,5.6l-0.9,37.6l3,15.8l0,0l2,10.6l-1.4,2.1l-8.1,12.1l-0.1,0.2
		l0,0l-0.4,0.5c0.5,0.3,1,0.5,1.5,0.8c1.2,0.7,2.4,1.3,3.6,2c0.3,0.2,0.6,0.3,0.8,0.5h0c0.2,0.1,0.4,0.2,0.5,0.3
		c4.4,2.5,8.4,4.7,12,6.8c0.5,0.3,1,0.6,1.5,0.9c16.7,9.7,25.1,15.7,29.4,19.2c1.9-2.3,3.8-4.7,5.6-7.1c1.6-2.2,3.2-4.4,4.8-6.7
		c0.3-1.8,0.4-3.5,0.6-5.3c0.2-2.1,0.4-4.3,0.8-6.4c0.2-0.9-0.5-1.8-1.1-2.7c-0.6-0.8-1.1-1.6-1-2.3c0.1-0.7,0.9-1.5,1.7-2.3
		c0.9-0.9,1.8-1.7,1.9-2.7c0.4-2.6,0.7-5.2,0.9-7.8c0.4-4.2,0.8-8.5,1-12.8C470.3,408.7,470.5,402.8,470.4,397z"/>
	<path class="st9" d="M388.8,459.4c1.4-4.7,6.3-7.3,10.9-6c0.5,0.1,1,0.3,1.4,0.6l22.4-21.8l3.1,15.9l-21.7,18.3
		c-2.5,4.2-7.9,5.6-12.1,3.2C389.3,467.6,387.6,463.4,388.8,459.4L388.8,459.4z"/>
	<path class="st1" d="M413.8,460.6l44.1-35.4l0-0.2c-0.1-0.5-5.2-45.9-7.8-55.4c-1.5-5.7-5-10.8-9.7-14.3l-0.1-0.1l-0.1,0
		c-6.2,0.5-11.1,5.2-12,11.3c-2,14.3-0.6,28.9,4,42.6l2.6,7.8l-28.3,30.2L413.8,460.6z"/>
	<circle class="st12" cx="187.8" cy="315.1" r="19.1"/>
	<path class="st11" d="M162.1,460.7l-0.1-0.1c-5.6-7.8,2.8-26.5,4.1-29.3l0,0c-3.1-1-5-4.1-4.7-7.3l0.5-4.6l0.6-4.5l-4.1-4.1l0-0.1
		l-2.3-20.5l-3.4-13.6c-2.6-10.5,0.6-21.5,8.5-29l7.9-1.2l9.6-9.2H194l5.3,5.1c10.4,8.5,12.9,4.8,24.6,20.9l-8.4,22.1l4.7,32.6
		l0,5.9l2.4,2.7c1.8,2,2.5,4.7,2,7.3l-0.3,1.6l0,0c2.5,1.1,4.4,3.3,4.9,6l0.9,4c0.7,1,5.6,7.4,5.6,9.2c0,0.3-0.2,0.5-0.6,0.8
		c-3.3,2.2-21.6,6.8-29.6,3.6c-8.6-3.4-42.8,1.7-43.2,1.8L162.1,460.7z"/>
	<path class="st12" d="M152.4,383.2l15.9-3.1c5.9,8.8,9,32.8,9,32.8l17.6,36.5c3.4,2.1,4.5,6.5,2.4,9.8c-2.1,3.4-6.5,4.5-9.8,2.4
		c-2.2-1.4-3.6-3.9-3.4-6.5l-22.9-43.2L152.4,383.2z"/>
	<path class="st11" d="M152.3,386.9l-0.5-23.6l7.5-10c3-4,8-5.9,13-5l0,0c6.8,1.3,11.4,7.7,10.5,14.5c-1.3,10-4.2,22.5-10.7,25.4
		l-0.1,0l6.8,23.6l-25.1,3.5L152.3,386.9z"/>
	<path class="st12" d="M246.8,384.8c0,0-19.1-14.9-29.4-17.1l-9.2,13.4l24.8,15.2l48.2,13.9c2.6,2.9,7.2,3.2,10.1,0.5
		c2.9-2.6,3.2-7.2,0.5-10.1c-1.7-1.9-4.4-2.8-7-2.2L246.8,384.8z"/>
	<path class="st11" d="M213.2,387.8l-19.9-12.8l-4.2-11.8c-1.6-4.7-0.5-10,3-13.5l0,0c4.9-4.9,12.7-5.2,17.9-0.6
		c7.6,6.6,17.4,8.8,16.1,15.8l3.7,0.5l18.7,14.2l-11,22.8L213.2,387.8z"/>
	<path class="st5" d="M166.1,302.5c2.1-3.3,6.2-5.5,10.1-4.9c1.1-7.5,8.1-12.7,15.6-11.6c2.8,0.4,5.4,1.7,7.5,3.6
		c1.2-0.9,2.8-1,4.2-0.4c1.3,0.6,2.5,1.6,3.4,2.7c4.6,5.7,5.6,13.4,2.8,20.2c0.5-1.7-1.3-3.4-3-3.8c-1.8-0.4-3.6,0-5.4-0.3
		c-2.3-0.3-4.3-1.7-6.6-1.9c-1.9-0.3-3.9,0.2-5.7,0.7c-1.9,0.5-3.8,1-5.7,0.8c-1.9-0.2-4.4,7.1-4.4,12.2c0,1-0.2,2.2-1.1,2.4
		c-1.2,0.3-1.9-1.4-3-1.8c-1-0.4-2.2,0.3-2.5,1.3c-0.3,1,0,2.2,0.6,3c0.7,0.8,1.5,1.5,2.4,2.1l-0.5,0.4c-0.8,1-2.4,1.1-3.5,0.4
		c-1.1-0.6-1.8-1.7-2.5-2.8c-2-3.4-3.8-7-4.5-10.9C163.5,310,164,305.8,166.1,302.5z"/>
	<path class="st13" d="M334.1,334.6c1.9,8.1,2.8,16.4,2.7,24.7c-0.2,8.3-1.4,16.6-3.6,24.6c-1.3,4.5-2.9,8.9-4.8,13.2
		c-0.3,0.8,0.8,1.4,1.1,0.7c3.4-7.7,5.9-15.9,7.3-24.2c1.4-8.4,1.7-16.8,0.9-25.3c-0.4-4.7-1.2-9.4-2.3-14
		C335.2,333.5,333.9,333.8,334.1,334.6L334.1,334.6z"/>
	<path class="st13" d="M457.6,391.2l-11.1,27c-1.8,4.3-3.5,8.7-5.4,13c-1.7,3.9-3.6,7.8-6.4,11c-2.8,3.2-6.6,5.9-11,6.4
		c-0.8,0.1-0.8,1.4,0,1.3c4-0.5,7.5-2.4,10.4-5.2c3.1-3,5.3-6.7,7.1-10.6c2-4.3,3.7-8.8,5.5-13.2l5.7-13.8l6.4-15.6
		C459.2,390.8,457.9,390.4,457.6,391.2L457.6,391.2z"/>
	<path class="st5" d="M326.5,415.7c0.4,1.2,1.5,1.9,2.7,1.9l11.7-0.3c1.2,0,2.3-0.9,2.6-2.1l1.7-17.7c0.6,0.3,1.2,0.4,1.9,0.4
		c2.4-0.1,4.2-2,4.2-4.4c-0.1-2.4-2-4.2-4.4-4.2c-0.3,0-0.5,0-0.8,0.1c-0.6-0.6-1.3-0.9-2.1-0.9l-18,0.5c-0.1,0-0.3,0-0.4,0.1
		c-1.5,0.3-2.5,1.7-2.2,3.3c0,0.1,0.1,0.2,0.1,0.4L326.5,415.7z M345.5,396.4l1.2-4.2c0.1-0.5,0.1-1,0-1.5c0.1,0,0.1,0,0.2,0
		c1.7,0,3.1,1.3,3.1,3c0,1.7-1.3,3.1-3,3.1C346.5,396.8,346,396.6,345.5,396.4z"/>
	<path class="st11" d="M325.5,389.1c0.4,2.2,4.7,3.7,9.9,3.5c4.8-0.2,8.6-1.9,9.4-3.9c-0.3-0.1-0.5-0.1-0.8-0.1l-18,0.5
		C325.8,389.1,325.7,389.1,325.5,389.1z"/>
	<path class="st5" d="M287.6,391.9c0.5-1.5-0.3-3.1-1.8-3.5c-0.1,0-0.2-0.1-0.4-0.1c-0.1,0-0.3,0-0.4-0.1l-18-0.5
		c-0.8,0-1.6,0.3-2.1,0.9c-0.3-0.1-0.5-0.1-0.8-0.1c-2.4-0.1-4.3,1.8-4.4,4.2c-0.1,2.4,1.8,4.3,4.2,4.4l0,0c0.6,0,1.3-0.1,1.9-0.4
		l1.7,17.7c0.3,1.2,1.4,2,2.6,2.1l11.7,0.3c1.2,0,2.3-0.7,2.7-1.9L287.6,391.9z M264,395.9c-1.7,0-3-1.4-3-3.1c0-1.7,1.4-3,3.1-3
		c0.1,0,0.1,0,0.2,0c-0.1,0.5-0.1,1,0,1.5l1.2,4.2C265,395.8,264.5,395.9,264,395.9z"/>
	<path class="st11" d="M285.5,388.2c-0.4,2.2-4.7,3.7-9.9,3.5c-4.8-0.2-8.6-1.9-9.4-3.9c0.3-0.1,0.5-0.1,0.8-0.1l18,0.5
		C285.2,388.2,285.3,388.2,285.5,388.2z"/>
	<path class="st6" d="M268.4,349.8c3.4-2.5,8.2-1.7,10.7,1.7c0.3,0.4,0.5,0.7,0.7,1.2l26.9-3.3l-6.3,12.6l-24.6,1.2
		c-3.9,1.6-8.4-0.3-10-4.2C264.5,355.7,265.6,351.9,268.4,349.8L268.4,349.8z"/>
	<path class="st1" d="M356.2,324.2c-0.8,1.6-1.8,3.4-2.8,5.3c-3.8,7-9,15.9-13.1,22.8c-3.4,5.8-6,10.1-6.1,10.2l-0.1,0.2l-23.7,0.5
		l-5.1,0.1l-1.7,0l-18.5,0.4l0.2-1.1l1.7-10.9l0.2-1.1l16.2-2.7l5.9-1l13.2-2.2l2.3-6.8c4-11.9,10.8-22.6,19.7-31.5
		c0.3-0.3,0.5-0.5,0.8-0.7c0.2-0.2,0.5-0.4,0.7-0.5c1.1,1.5,2,2.9,2.8,4l2,2.7C353.4,315.6,355.3,319.8,356.2,324.2z"/>
	<path class="st8" d="M257.7,364.6c0.4,1.2,1.5,1.9,2.7,1.9l11.7-0.3c1.2,0,2.3-0.9,2.6-2.1l1.7-17.7c0.6,0.3,1.2,0.4,1.9,0.4
		c2.4-0.1,4.2-2,4.2-4.4c-0.1-2.4-2-4.2-4.4-4.2c-0.3,0-0.5,0-0.8,0.1c-0.6-0.6-1.3-0.9-2.1-0.9l-18,0.5c-0.1,0-0.3,0-0.4,0.1
		c-1.5,0.3-2.5,1.7-2.2,3.3c0,0.1,0.1,0.2,0.1,0.4L257.7,364.6z M276.8,345.2l1.2-4.2c0.1-0.5,0.1-1,0-1.5c0.1,0,0.1,0,0.2,0
		c1.7,0,3.1,1.3,3.1,3c0,1.7-1.3,3.1-3,3.1C277.7,345.6,277.2,345.5,276.8,345.2z"/>
	<path class="st11" d="M256.8,338c0.4,2.2,4.7,3.7,9.9,3.5c4.8-0.2,8.6-1.9,9.4-3.9c-0.3-0.1-0.5-0.1-0.8-0.1l-18,0.5
		C257.1,337.9,256.9,338,256.8,338z"/>
</g>
</svg>
