<?xml version="1.0" encoding="utf-8"?>
<!-- Generator: Adobe Illustrator 28.1.0, SVG Export Plug-In . SVG Version: 6.00 Build 0)  -->
<svg version="1.1" id="Calque_1" xmlns="http://www.w3.org/2000/svg" xmlns:xlink="http://www.w3.org/1999/xlink" x="0px" y="0px"
	 viewBox="0 0 776.2 216.4" style="enable-background:new 0 0 776.2 216.4;" xml:space="preserve">
<style type="text/css">
	.st0{fill:#FFFFFF;}
</style>
<g>
	<g>
		<g>
			<path class="st0" d="M207,122.2c-4.6-1.6-8.7-3.1-12.5-4.7c-3.7-1.6-7-3.6-9.7-5.8c-2.7-2.3-4.8-5-6.3-8.2s-2.3-7-2.3-11.6
				c0-8.8,3.4-15.9,10.2-21.2c6.8-5.3,16.3-7.9,28.6-7.9c4.5,0,8.6,0.3,12.5,0.9c3.8,0.6,7.1,1.6,9.9,2.9c2.7,1.3,4.9,3,6.5,5
				s2.3,4.4,2.3,7.1c0,2.7-0.6,5-1.9,6.9c-1.2,1.9-2.8,3.6-4.5,4.9c-2.3-1.5-5.3-2.7-9.2-3.8c-3.8-1.1-8-1.6-12.6-1.6
				c-4.7,0-8.1,0.6-10.3,1.9c-2.2,1.3-3.3,2.9-3.3,4.9c0,1.6,0.7,2.8,2,3.8c1.3,1,3.4,1.9,6.1,2.7l8.2,2.6
				c9.8,3.1,17.2,7.1,22.5,11.9c5.2,4.8,7.9,11.4,7.9,19.7c0,8.8-3.5,16-10.4,21.4c-7,5.4-17.2,8.2-30.7,8.2
				c-4.8,0-9.2-0.4-13.3-1.2c-4.1-0.8-7.7-1.9-10.7-3.4c-3.1-1.5-5.4-3.4-7.2-5.6c-1.7-2.2-2.6-4.8-2.6-7.7c0-3,0.9-5.6,2.6-7.7
				c1.8-2.1,3.7-3.8,5.8-4.9c2.9,2.3,6.5,4.3,10.7,5.9c4.2,1.7,8.8,2.5,13.8,2.5c5.1,0,8.7-0.8,10.7-2.3c2.1-1.6,3.1-3.4,3.1-5.4
				c0-2.1-0.8-3.7-2.5-4.7c-1.7-1.1-4-2.2-7-3.2L207,122.2z"/>
			<path class="st0" d="M296.7,81.7c5.6,0,10.7,0.6,15.3,1.7c4.6,1.1,8.6,2.9,11.8,5.2c3.3,2.3,5.8,5.3,7.5,8.9
				c1.8,3.6,2.6,7.8,2.6,12.7v34.9c0,2.7-0.8,4.9-2.3,6.6s-3.3,3.2-5.4,4.4c-6.7,4-16.2,6.1-28.5,6.1c-5.5,0-10.5-0.5-14.9-1.6
				c-4.4-1-8.2-2.6-11.4-4.7c-3.2-2.1-5.6-4.7-7.3-7.9c-1.7-3.2-2.6-7-2.6-11.2c0-7.2,2.1-12.7,6.4-16.5s10.8-6.2,19.8-7.2l20.4-2.2
				v-1.1c0-3-1.3-5.2-4-6.5c-2.6-1.3-6.5-1.9-11.4-1.9c-3.9,0-7.8,0.4-11.5,1.2s-7.1,1.9-10.1,3.1c-1.3-0.9-2.5-2.4-3.4-4.3
				c-0.9-1.9-1.4-3.9-1.4-6c0-2.7,0.6-4.8,1.9-6.5c1.3-1.6,3.3-3,6-4.1c3-1.1,6.6-2,10.7-2.5C289.2,82,293,81.7,296.7,81.7z
				 M297.9,142.9c1.8,0,3.7-0.2,5.8-0.5c2.1-0.4,3.7-0.9,4.7-1.5v-12.5l-11.2,0.9c-2.9,0.2-5.3,0.8-7.2,1.9c-1.9,1-2.8,2.6-2.8,4.7
				s0.8,3.8,2.4,5.1C291.3,142.3,294.1,142.9,297.9,142.9z"/>
			<path class="st0" d="M350.5,84.1c0-5.3,0.9-9.8,2.7-13.6c1.8-3.8,4.3-6.9,7.4-9.3c3.1-2.4,6.8-4.2,11-5.4
				c4.2-1.1,8.7-1.7,13.5-1.7c7.7,0,13.3,1,17,3c3.6,2,5.4,5.5,5.4,10.4c0,2.1-0.4,3.9-1.3,5.6c-0.9,1.7-1.8,2.9-2.9,3.7
				c-2-0.5-4-1-6.1-1.3c-2.1-0.4-4.6-0.5-7.4-0.5c-4.5,0-7.9,0.8-10.4,2.3s-3.7,4.1-3.7,7.9v5h25.5c0.6,1.1,1.2,2.6,1.8,4.3
				c0.6,1.7,0.9,3.6,0.9,5.7c0,3.6-0.8,6.3-2.4,7.9c-1.6,1.6-3.8,2.4-6.5,2.4h-17.9v49.3c-1,0.3-2.7,0.6-4.9,0.9
				c-2.2,0.3-4.5,0.5-6.9,0.5c-2.3,0-4.3-0.2-6.1-0.5c-1.8-0.3-3.3-0.9-4.6-1.9c-1.2-0.9-2.2-2.2-2.9-3.8c-0.7-1.6-1-3.7-1-6.3V84.1
				H350.5z"/>
			<path class="st0" d="M453.7,162.2c-6.1,0-11.8-0.9-17-2.6s-9.8-4.3-13.7-7.7c-3.9-3.4-7-7.7-9.2-12.9c-2.2-5.2-3.3-11.3-3.3-18.2
				c0-6.8,1.1-12.7,3.3-17.7c2.2-4.9,5.2-9,8.8-12.1c3.6-3.2,7.8-5.5,12.5-7s9.4-2.3,14.3-2.3c5.5,0,10.5,0.8,15,2.5
				s8.4,3.9,11.7,6.8c3.3,2.9,5.8,6.4,7.6,10.4s2.7,8.5,2.7,13.2c0,3.5-1,6.2-3,8.1s-4.7,3.1-8.2,3.6l-38.4,5.8c1.1,3.4,3.5,6,7,7.7
				s7.6,2.6,12.1,2.6c4.3,0,8.3-0.5,12.1-1.6c3.8-1.1,6.9-2.4,9.3-3.8c1.7,1,3.1,2.5,4.2,4.4c1.1,1.9,1.7,3.8,1.7,5.9
				c0,4.7-2.2,8.1-6.5,10.4c-3.3,1.8-7.1,3-11.2,3.6C461.2,161.9,457.3,162.2,453.7,162.2z M449.3,101c-2.5,0-4.6,0.4-6.5,1.2
				c-1.8,0.8-3.3,1.9-4.4,3.2s-2,2.8-2.6,4.4c-0.6,1.6-0.9,3.2-1,4.9l26.6-4.4c-0.3-2.1-1.5-4.1-3.4-6.2
				C456.1,102.1,453.2,101,449.3,101z"/>
		</g>
		<g>
			<path class="st0" d="M489.8,87.2c-0.7-1.1-1.4-2.7-2-4.7s-0.9-4-0.9-6.2c0-4,0.9-7,2.7-8.7c1.8-1.8,4.2-2.6,7.1-2.6h67.9
				c0.7,1.1,1.4,2.7,2,4.7s0.9,4,0.9,6.2c0,4-0.9,7-2.7,8.7c-1.8,1.8-4.2,2.6-7.1,2.6h-17.3v71.9c-1.1,0.3-2.9,0.6-5.4,0.9
				c-2.4,0.3-4.9,0.5-7.2,0.5c-2.4,0-4.5-0.2-6.3-0.5c-1.8-0.4-3.3-1-4.6-1.9c-1.2-0.9-2.2-2.2-2.8-3.9c-0.6-1.7-0.9-3.8-0.9-6.5
				V87.3h-23.4V87.2z"/>
			<path class="st0" d="M605.1,81.7c5.6,0,10.7,0.6,15.3,1.7c4.6,1.1,8.6,2.9,11.8,5.2c3.3,2.3,5.8,5.3,7.5,8.9
				c1.8,3.6,2.6,7.8,2.6,12.7v34.9c0,2.7-0.8,4.9-2.3,6.6s-3.3,3.2-5.4,4.4c-6.7,4-16.2,6.1-28.5,6.1c-5.5,0-10.5-0.5-14.9-1.6
				c-4.4-1-8.2-2.6-11.4-4.7s-5.6-4.7-7.3-7.9c-1.7-3.2-2.6-7-2.6-11.2c0-7.2,2.1-12.7,6.4-16.5c4.3-3.8,10.8-6.2,19.8-7.2l20.4-2.2
				v-1.1c0-3-1.3-5.2-4-6.5c-2.6-1.3-6.5-1.9-11.4-1.9c-3.9,0-7.8,0.4-11.5,1.2s-7.1,1.9-10.1,3.1c-1.4-0.9-2.5-2.4-3.4-4.3
				c-0.9-1.9-1.4-3.9-1.4-6c0-2.7,0.6-4.8,1.9-6.5c1.3-1.6,3.3-3,6-4.1c3-1.1,6.6-2,10.7-2.5C597.6,82,601.5,81.7,605.1,81.7z
				 M606.4,142.9c1.8,0,3.7-0.2,5.8-0.5c2.1-0.4,3.7-0.9,4.7-1.5v-12.5l-11.2,0.9c-2.9,0.2-5.3,0.8-7.2,1.9c-1.9,1-2.8,2.6-2.8,4.7
				s0.8,3.8,2.4,5.1C599.8,142.3,602.5,142.9,606.4,142.9z"/>
			<path class="st0" d="M685.6,159.6c-1.1,0.2-2.8,0.5-5.1,0.9c-2.2,0.4-4.5,0.5-6.8,0.5s-4.3-0.2-6.1-0.5s-3.3-0.9-4.6-1.9
				c-1.2-0.9-2.2-2.2-2.9-3.8c-0.7-1.6-1-3.7-1-6.3V58.2c1.1-0.2,2.8-0.5,5.1-0.9c2.2-0.4,4.5-0.5,6.8-0.5s4.3,0.2,6.1,0.5
				s3.3,0.9,4.6,1.9c1.2,0.9,2.2,2.2,2.9,3.8s1,3.7,1,6.3V159.6z"/>
			<path class="st0" d="M776.2,146c-0.5,4.9-1.9,8.6-4.3,11.2c-2.3,2.6-5.7,3.9-10.2,3.9c-3.3,0-6.3-0.8-8.9-2.4
				c-2.6-1.6-5.4-4.3-8.4-8.2L729,131.2v28.3c-1.1,0.2-2.8,0.5-5.1,0.9c-2.2,0.4-4.5,0.5-6.8,0.5s-4.3-0.2-6.1-0.5s-3.3-0.9-4.6-1.9
				c-1.2-0.9-2.2-2.2-2.9-3.8c-0.7-1.6-1-3.7-1-6.3V58.3c1.1-0.3,2.8-0.6,5.1-1c2.2-0.4,4.5-0.5,6.8-0.5s4.3,0.2,6.1,0.5
				s3.3,0.9,4.6,1.9c1.2,0.9,2.2,2.2,2.9,3.8s1,3.7,1,6.3v41.1L755.8,83c5.4,0,9.7,1.2,13,3.6c3.3,2.4,4.9,5.4,4.9,9
				c0,1.6-0.3,3-0.8,4.3s-1.3,2.6-2.4,4c-1.1,1.3-2.5,2.8-4.2,4.3s-3.7,3.2-6,5.2l-9,7.8L776.2,146z"/>
		</g>
	</g>
	<g>
		<path class="st0" d="M68.9,156.2L8.8,216.3C3.1,209.9,0,201.8,0,193.1c0-9.3,3.6-18.1,10.2-24.7l35.5-35.5L68.9,156.2z"/>
		<path class="st0" d="M143.5,192.9v0.6c-0.1,8.5-3.2,16.6-8.8,22.9L10.2,91.8C3.6,85.2,0,76.5,0,67.1c0-8.6,3.1-16.8,8.8-23.2
			l124.5,124.5C139.8,175,143.5,183.7,143.5,192.9z"/>
		<path class="st0" d="M143.5,66.9v0.6c-0.1,9.2-3.7,17.8-10.2,24.4l-35.4,35.4l-23.2-23.2L134.8,44
			C140.3,50.3,143.5,58.4,143.5,66.9z"/>
		<path class="st0" d="M109.1,63.8c0.6-3.4,0.3-6.8-0.8-10.1c-2.6-7.8-10.2-13.9-18-14.5c-0.5,0-0.9-0.1-1.4-0.1
			c-7,0-12.6,4.1-17.2,8.6c-4.6-4.5-10.2-8.6-17.2-8.6c-0.5,0-0.9,0-1.4,0.1c-7.8,0.6-15.4,6.7-18,14.5c-1.1,3.2-1.3,6.7-0.8,10.1
			L11.7,41.1l27.7-27.7C48.1,4.7,59.6,0,71.8,0c12.3,0,23.8,4.8,32.4,13.4l27.7,27.7L109.1,63.8z"/>
		<circle class="st0" cx="54.9" cy="60" r="3.4"/>
		<circle class="st0" cx="88.6" cy="60" r="3.4"/>
		<path class="st0" d="M77.7,82c-1.2,2-3.4,3.4-5.9,3.4S67.1,84,65.9,82H77.7z"/>
	</g>
</g>
</svg>
