<?xml version="1.0" encoding="utf-8"?>
<!-- Generator: Adobe Illustrator 28.1.0, SVG Export Plug-In . SVG Version: 6.00 Build 0)  -->
<svg version="1.1" id="Calque_1" xmlns="http://www.w3.org/2000/svg" xmlns:xlink="http://www.w3.org/1999/xlink" x="0px" y="0px"
	 viewBox="0 0 850.4 850.4" style="enable-background:new 0 0 850.4 850.4;" xml:space="preserve">
<style type="text/css">
	.st0{fill:url(#SVGID_1_);}
	.st1{fill:#11B286;}
	.st2{fill:url(#SVGID_00000160895473602749334660000017691719398172934277_);}
	.st3{fill:url(#SVGID_00000023262636356681755320000006338960348544361884_);}
</style>
<linearGradient id="SVGID_1_" gradientUnits="userSpaceOnUse" x1="177.7658" y1="745.6964" x2="377.1207" y2="546.3416">
	<stop  offset="2.770450e-07" style="stop-color:#11B286"/>
	<stop  offset="0.3986" style="stop-color:#11AF84"/>
	<stop  offset="0.6383" style="stop-color:#10A77E"/>
	<stop  offset="0.8353" style="stop-color:#0F9973"/>
	<stop  offset="1" style="stop-color:#0D8665"/>
</linearGradient>
<path class="st0" d="M415.6,584.9L216.3,784.2C197.4,763,187,736,187,707.3c0-30.9,12-60,33.9-81.8l117.7-117.7L415.6,584.9z"/>
<path class="st1" d="M663.4,706.4v1.9c-0.2,28.2-10.5,55-29.2,75.9L220.9,371c-21.9-21.9-33.9-50.9-33.9-81.8
	c0-28.6,10.3-55.7,29.2-76.9l413.2,413.2C651.1,647.1,663.1,675.8,663.4,706.4z"/>
<linearGradient id="SVGID_00000029743480496297812370000009098056511246665869_" gradientUnits="userSpaceOnUse" x1="672.6398" y1="250.8224" x2="473.2849" y2="450.1774">
	<stop  offset="2.770450e-07" style="stop-color:#11B286"/>
	<stop  offset="0.3986" style="stop-color:#11AF84"/>
	<stop  offset="0.6383" style="stop-color:#10A77E"/>
	<stop  offset="0.8353" style="stop-color:#0F9973"/>
	<stop  offset="1" style="stop-color:#0D8665"/>
</linearGradient>
<path style="fill:url(#SVGID_00000029743480496297812370000009098056511246665869_);" d="M663.4,288.3v1.9
	c-0.2,30.5-12.3,59.2-33.9,80.8L511.8,488.7l-77-77l199.4-199.4C652.8,233.3,663.1,260,663.4,288.3z"/>
<linearGradient id="SVGID_00000077296219674185676520000015764832824743343547_" gradientUnits="userSpaceOnUse" x1="225.7167" y1="172.1768" x2="624.6889" y2="172.1768">
	<stop  offset="2.877006e-07" style="stop-color:#0D8665"/>
	<stop  offset="8.236043e-02" style="stop-color:#0F9973"/>
	<stop  offset="0.1809" style="stop-color:#10A77E"/>
	<stop  offset="0.3007" style="stop-color:#11AF84"/>
	<stop  offset="0.5" style="stop-color:#11B286"/>
	<stop  offset="0.6993" style="stop-color:#11AF84"/>
	<stop  offset="0.8191" style="stop-color:#10A77E"/>
	<stop  offset="0.9176" style="stop-color:#0F9973"/>
	<stop  offset="1" style="stop-color:#0D8665"/>
</linearGradient>
<path style="fill:url(#SVGID_00000077296219674185676520000015764832824743343547_);" d="M549.1,278.2c1.9-11.1,1-22.7-2.6-33.4
	c-8.6-25.9-33.7-46.1-59.6-48.2c-1.6-0.1-3.1-0.2-4.7-0.2c-23.4,0-41.9,13.8-57.1,28.6c-15.2-14.8-33.7-28.6-57.1-28.6
	c-1.5,0-3.1,0.1-4.6,0.2c-25.9,2.1-51,22.3-59.6,48.2c-3.6,10.8-4.4,22.3-2.6,33.4l-75.5-75.5l91.8-91.8
	c28.8-28.8,67-44.6,107.7-44.6c40.7,0,78.9,15.8,107.7,44.6l91.8,91.8L549.1,278.2z"/>
<circle class="st1" cx="369.3" cy="265.3" r="11.3"/>
<circle class="st1" cx="481.1" cy="265.3" r="11.3"/>
<path class="st1" d="M444.8,338.5c-3.9,6.7-11.2,11.2-19.6,11.2s-15.6-4.5-19.6-11.2H444.8z"/>
</svg>
